<!DOCTYPE svg PUBLIC "-//W3C//DTD SVG 1.1//EN" "http://www.w3.org/Graphics/SVG/1.1/DTD/svg11.dtd">
<!-- Uploaded to: SVG Repo, www.svgrepo.com, Transformed by: SVG Repo Mixer Tools -->
<svg fill="#388E3C" version="1.1" id="Layer_1" xmlns="http://www.w3.org/2000/svg" xmlns:xlink="http://www.w3.org/1999/xlink" viewBox="0 0 512 512" xml:space="preserve" width="800px" height="800px">
<g id="SVGRepo_bgCarrier" stroke-width="0"/>
<g id="SVGRepo_tracerCarrier" stroke-linecap="round" stroke-linejoin="round"/>
<g id="SVGRepo_iconCarrier"> <g> <g> <path d="M94.698,90.433V217.33H39.716C17.817,217.33,0,235.146,0,257.044v124.808c0,21.899,17.817,39.716,39.716,39.716h230.377 c21.899,0,39.716-17.816,39.716-39.716v-58.395H512V90.433H94.698z M478.609,123.824v27.54 c-12.664-4.796-22.745-14.877-27.541-27.54H478.609z M128.089,123.824h27.541c-4.796,12.664-14.877,22.745-27.541,27.54V123.824z M276.415,381.852c0,3.487-2.837,6.324-6.323,6.324H39.716c-3.487,0-6.324-2.837-6.324-6.324v-72.686h243.024V381.852z M276.417,275.775H33.391v-18.73c0-3.487,2.837-6.324,6.324-6.324h230.377c3.487,0,6.324,2.837,6.324,6.324V275.775z M270.092,217.331h-17.12c-1.908-3.37-2.885-6.844-2.885-10.386c0-17.985,24.391-33.179,53.261-33.179 s53.261,15.193,53.261,33.179c0,17.434-22.918,32.243-50.618,33.135C299.618,226.646,285.924,217.331,270.092,217.331z M478.609,290.066h-27.541c4.796-12.664,14.877-22.746,27.541-27.541V290.066z M478.61,227.828 c-31.113,6.574-55.664,31.125-62.238,62.238H309.808v-16.749h-0.001c19.733-1.101,38.251-7.209,52.701-17.511 c17.473-12.456,27.493-30.266,27.493-48.86c0-18.594-10.021-36.404-27.493-48.86c-16.019-11.42-37.029-17.709-59.159-17.709 s-43.14,6.289-59.159,17.709c-17.473,12.456-27.493,30.266-27.493,48.86c0,3.509,0.347,6.978,1.028,10.385h-89.636v-31.269 c31.113-6.574,55.664-31.125,62.238-62.237h226.045c6.574,31.112,31.125,55.663,62.238,62.237V227.828z"/> </g> </g> <g> <g> <rect x="63.622" y="332.232" width="47.775" height="33.391"/> </g> </g> </g>
</svg>